<svg width="34" height="35" viewBox="0 0 34 35" fill="none" xmlns="http://www.w3.org/2000/svg">
<g clip-path="url(#clip0_1004_443)">
<rect y="0.5" width="34" height="34" rx="5" fill="white"/>
<path d="M25.5001 6.16675H8.50008C6.93527 6.16675 5.66675 7.43527 5.66675 9.00008V26.0001C5.66675 27.5649 6.93527 28.8334 8.50008 28.8334H25.5001C27.0649 28.8334 28.3334 27.5649 28.3334 26.0001V9.00008C28.3334 7.43527 27.0649 6.16675 25.5001 6.16675Z" stroke="#CB70FC" stroke-width="2" stroke-linecap="round" stroke-linejoin="round"/>
<path d="M21.25 13.25H12.75V21.75H21.25V13.25Z" stroke="white" stroke-width="2" stroke-linecap="round" stroke-linejoin="round"/>
<path d="M12.75 1.91675V6.16675" stroke="#CB70FC" stroke-width="2" stroke-linecap="round" stroke-linejoin="round"/>
<path d="M21.25 1.91675V6.16675" stroke="#CB70FC" stroke-width="2" stroke-linecap="round" stroke-linejoin="round"/>
<path d="M12.75 28.8335V33.0835" stroke="#CB70FC" stroke-width="2" stroke-linecap="round" stroke-linejoin="round"/>
<path d="M21.25 28.8335V33.0835" stroke="#CB70FC" stroke-width="2" stroke-linecap="round" stroke-linejoin="round"/>
<path d="M28.3333 13.25H32.5833" stroke="#CB70FC" stroke-width="2" stroke-linecap="round" stroke-linejoin="round"/>
<path d="M28.3333 20.3335H32.5833" stroke="#CB70FC" stroke-width="2" stroke-linecap="round" stroke-linejoin="round"/>
<path d="M1.41675 13.25H5.66675" stroke="#CB70FC" stroke-width="2" stroke-linecap="round" stroke-linejoin="round"/>
<path d="M1.41675 20.3335H5.66675" stroke="#CB70FC" stroke-width="2" stroke-linecap="round" stroke-linejoin="round"/>
</g>
<defs>
<clipPath id="clip0_1004_443">
<rect y="0.5" width="34" height="34" rx="5" fill="white"/>
</clipPath>
</defs>
</svg>
