<svg width="24" height="162" viewBox="0 0 24 162" fill="none" xmlns="http://www.w3.org/2000/svg">
<path d="M23.0002 5.32788L18.6723 1L11.8518 7.82176L5.03002 1L0.702148 5.32788L7.52389 12.1496L0.702148 18.9702L5.03002 23.298L11.8518 16.4775L18.6723 23.298L23.0002 18.9702L16.1796 12.1496L23.0002 5.32788Z" stroke="white" stroke-miterlimit="10"/>
<path d="M23.0002 39.6257L18.6723 35.2979L11.8518 42.1196L5.03002 35.2979L0.702148 39.6257L7.52389 46.4475L0.702148 53.268L5.03002 57.5959L11.8518 50.7753L18.6723 57.5959L23.0002 53.268L16.1796 46.4475L23.0002 39.6257Z" stroke="white" stroke-miterlimit="10"/>
<path d="M23.0002 73.9241L18.6723 69.5962L11.8518 76.418L5.03002 69.5962L0.702148 73.9241L7.52389 80.7458L0.702148 87.5664L5.03002 91.8942L11.8518 85.0737L18.6723 91.8942L23.0002 87.5664L16.1796 80.7458L23.0002 73.9241Z" stroke="white" stroke-miterlimit="10"/>
<path d="M23.0002 108.222L18.6723 103.894L11.8518 110.715L5.03002 103.894L0.702148 108.222L7.52389 115.042L0.702148 121.864L5.03002 126.192L11.8518 119.37L18.6723 126.192L23.0002 121.864L16.1796 115.042L23.0002 108.222Z" stroke="white" stroke-miterlimit="10"/>
<path d="M23.0002 142.52L18.6723 138.192L11.8518 145.012L5.03002 138.192L0.702148 142.52L7.52389 149.342L0.702148 156.162L5.03002 160.49L11.8518 153.669L18.6723 160.49L23.0002 156.162L16.1796 149.342L23.0002 142.52Z" stroke="white" stroke-miterlimit="10"/>
</svg>
