<svg width="60" height="60" viewBox="0 0 60 60" fill="none" xmlns="http://www.w3.org/2000/svg">
<path d="M58.4718 31.3933L45.7668 25.545V8.78834C45.7609 8.43678 45.6541 8.09432 45.4591 7.80177C45.2641 7.50923 44.989 7.27893 44.6668 7.13834L30.9168 0.813338C30.6754 0.701649 30.4127 0.643799 30.1468 0.643799C29.8808 0.643799 29.6181 0.701649 29.3768 0.813338L15.6268 7.13834C15.3085 7.28561 15.0392 7.52106 14.8508 7.81676C14.6623 8.11247 14.5626 8.45601 14.5634 8.80667V25.5633L1.91344 31.3933C1.59521 31.5406 1.32589 31.7761 1.13742 32.0718C0.948949 32.3675 0.849236 32.711 0.850103 33.0617V50.9917C0.849236 51.3423 0.948949 51.6859 1.13742 51.9816C1.32589 52.2773 1.59521 52.5127 1.91344 52.66L15.6634 58.985C15.9048 59.0967 16.1675 59.1545 16.4334 59.1545C16.6994 59.1545 16.9621 59.0967 17.2034 58.985L30.1834 53.0083L43.1634 58.985C43.4048 59.0967 43.6675 59.1545 43.9334 59.1545C44.1994 59.1545 44.4621 59.0967 44.7034 58.985L58.4534 52.66C58.7717 52.5127 59.041 52.2773 59.2295 51.9816C59.4179 51.6859 59.5176 51.3423 59.5168 50.9917V33.0617C59.5193 32.713 59.4223 32.3708 59.2372 32.0753C59.0521 31.7798 58.7866 31.5433 58.4718 31.3933ZM53.3201 33.0617L43.9518 37.3333L34.5834 33.0617L43.9518 28.7533L53.3201 33.0617ZM30.1834 4.48L39.5518 8.78834L30.1834 13.0967L20.8334 8.78834L30.1834 4.48ZM16.4334 28.735L25.8018 33.0433L16.4334 37.3333L7.0651 33.0617L16.4334 28.735ZM28.3501 49.8L16.4334 55.3L4.51677 49.8V35.9217L15.6634 41C15.8998 41.1062 16.156 41.1612 16.4151 41.1612C16.6742 41.1612 16.9304 41.1062 17.1668 41L28.3134 35.8667L28.3501 49.8ZM18.2668 25.545V11.6667L29.4134 16.8C29.6548 16.9117 29.9175 16.9695 30.1834 16.9695C30.4494 16.9695 30.7121 16.9117 30.9534 16.8L42.1001 11.6667V25.5633L30.1834 31.0633L18.2668 25.545ZM55.8684 49.8183L43.9518 55.3183L32.0168 49.8183V35.9033L43.1818 41C43.4156 41.1036 43.6685 41.1571 43.9243 41.1571C44.18 41.1571 44.4329 41.1036 44.6668 41L55.8134 35.8667L55.8684 49.8183Z" fill="#F8F8F8"/>
</svg>
